<mxfile host="app.diagrams.net" modified="2021-01-17T03:14:04.943Z" agent="5.0 (Windows NT 10.0; Win64; x64) AppleWebKit/537.36 (KHTML, like Gecko) Chrome/87.0.4280.141 Safari/537.36" etag="lGppRd6XhqWJ6fsFT_ed" version="14.1.8" type="github">
  <diagram id="D52wYUwa7AdppvzgQ1sX" name="第 1 页">
    <mxGraphModel dx="992" dy="563" grid="1" gridSize="10" guides="1" tooltips="1" connect="1" arrows="1" fold="1" page="1" pageScale="1" pageWidth="827" pageHeight="1169" math="0" shadow="0">
      <root>
        <mxCell id="0" />
        <mxCell id="1" parent="0" />
        <mxCell id="gMsHHSpNyxdrCpWEvyL_-3" value="" style="edgeStyle=orthogonalEdgeStyle;rounded=0;orthogonalLoop=1;jettySize=auto;html=1;" edge="1" parent="1" source="gMsHHSpNyxdrCpWEvyL_-1" target="gMsHHSpNyxdrCpWEvyL_-2">
          <mxGeometry relative="1" as="geometry" />
        </mxCell>
        <mxCell id="gMsHHSpNyxdrCpWEvyL_-1" value="window" style="rounded=0;whiteSpace=wrap;html=1;" vertex="1" parent="1">
          <mxGeometry x="340" y="120" width="120" height="60" as="geometry" />
        </mxCell>
        <mxCell id="gMsHHSpNyxdrCpWEvyL_-2" value="jsGrid" style="whiteSpace=wrap;html=1;rounded=0;" vertex="1" parent="1">
          <mxGeometry x="340" y="260" width="120" height="60" as="geometry" />
        </mxCell>
      </root>
    </mxGraphModel>
  </diagram>
</mxfile>
